<?xml version="1.0" encoding="utf-8"?>
<!-- Generator: Adobe Illustrator 27.5.0, SVG Export Plug-In . SVG Version: 6.00 Build 0)  -->
<svg version="1.1" id="Layer_1" xmlns="http://www.w3.org/2000/svg" xmlns:xlink="http://www.w3.org/1999/xlink" x="0px" y="0px"
	 viewBox="0 0 800 800" style="enable-background:new 0 0 800 800;" xml:space="preserve">
<style type="text/css">
	.st0{fill:#FFFFFF;}
</style>
<g>
	<path class="st0" d="M677.7,51.9C625.9,27.7,570.5,10.1,512.7,0c-7.1,12.9-15.4,30.1-21.1,43.9c-61.5-9.3-122.5-9.3-182.9,0
		c-5.7-13.8-14.2-31-21.4-43.9c-58,10-113.4,27.7-165.2,52C17.5,209.8-10.8,363.7,3.4,515.5c69.3,51.7,136.4,83.2,202.4,103.7
		c16.3-22.4,30.8-46.3,43.4-71.4c-23.8-9.1-46.7-20.2-68.3-33.2c5.7-4.2,11.3-8.7,16.7-13.2c131.6,61.6,274.7,61.6,404.7,0
		c5.5,4.6,11.1,9,16.7,13.2c-21.6,13-44.5,24.2-68.4,33.3c12.5,25.1,27,49,43.4,71.4c66.1-20.6,133.3-52,202.5-103.8
		C813.2,339.6,768.2,187.1,677.7,51.9z M267.1,422.2c-39.5,0-71.9-36.9-71.9-81.8s31.7-81.9,71.9-81.9s72.6,36.9,71.9,81.9
		C339.1,385.3,307.3,422.2,267.1,422.2z M532.9,422.2c-39.5,0-71.9-36.9-71.9-81.8s31.7-81.9,71.9-81.9s72.6,36.9,71.9,81.9
		C604.8,385.3,573.1,422.2,532.9,422.2z"/>
</g>
</svg>
