<?xml version="1.0" encoding="UTF-8"?>
<svg id="Layer_2" data-name="Layer 2" xmlns="http://www.w3.org/2000/svg" viewBox="0 0 23.28 20.56">
  <defs>
    <style>
      .cls-1 {
        fill: #231f20;
        stroke-width: 0px;
      }
    </style>
  </defs>
  <g id="Layer_1-2" data-name="Layer 1">
    <path class="cls-1" d="M.14,13.29c.35.76,1.25,1.09,2.01.73l9.48-4.91v-3.41S.87,11.28.87,11.28c-.76.35-1.09,1.25-.73,2.01Z"/>
    <path class="cls-1" d="M23.13,13.29c-.35.76-1.25,1.09-2.01.73l-9.48-4.91v-3.41s10.76,5.57,10.76,5.57c.76.35,1.09,1.25.73,2.01Z"/>
    <path class="cls-1" d="M.14,19.69c.35.76,1.25,1.09,2.01.73l9.48-4.91v-3.41S.87,17.68.87,17.68c-.76.35-1.09,1.25-.73,2.01Z"/>
    <path class="cls-1" d="M.14,19.69c.35.76,1.25,1.09,2.01.73l9.48-4.91v-3.41S.87,17.68.87,17.68c-.76.35-1.09,1.25-.73,2.01Z"/>
    <path class="cls-1" d="M23.13,19.69c-.35.76-1.25,1.09-2.01.73l-9.48-4.91v-3.41s10.76,5.57,10.76,5.57c.76.35,1.09,1.25.73,2.01Z"/>
    <path class="cls-1" d="M.14,7.58c.35.76,1.25,1.09,2.01.73L11.64,3.41V0S.87,5.57.87,5.57C.12,5.93-.21,6.83.14,7.58Z"/>
    <path class="cls-1" d="M23.13,7.58c-.35.76-1.25,1.09-2.01.73L11.64,3.41V0s10.76,5.57,10.76,5.57c.76.35,1.09,1.25.73,2.01Z"/>
  </g>
</svg>