<?xml version="1.0" encoding="UTF-8"?>
<svg id="Layer_2" data-name="Layer 2" xmlns="http://www.w3.org/2000/svg" viewBox="0 0 24 16.38">
  <defs>
    <style>
      .cls-1 {
      fill: #231f20;
      stroke-width: 0px;
      }
    </style>
  </defs>
  <g id="Layer_2" data-name="Layer 2">
    <path class="cls-1" id="og1" d="M1.51,3.03h10.49V0H1.51C.68,0,0,.68,0,1.51s.68,1.51,1.51,1.51Z" />
    <path class="cls-1" id="og2" d="M1.51,9.42h10.49v-3.03H1.51c-.84,0-1.51.68-1.51,1.51s.68,1.51,1.51,1.51Z" />
    <path class="cls-1" id="og3" d="M12,13.36H1.51c-.84,0-1.51.68-1.51,1.51s.68,1.51,1.51,1.51h10.49v-3.03Z" />
    <path class="cls-1" id="og4"
      d="M22.49,3.03h-10.49V0h10.49c.84,0,1.51.68,1.51,1.51,0,.84-.68,1.51-1.51,1.51Z" />
    <path class="cls-1" id="og5"
      d="M22.49,9.42h-10.49v-3.03h10.49c.84,0,1.51.68,1.51,1.51s-.68,1.51-1.51,1.51Z" />
    <path class="cls-1" id="og6"
      d="M12,13.36h10.49c.84,0,1.51.68,1.51,1.51s-.68,1.51-1.51,1.51h-10.49v-3.03Z" />
    <path class="cls-1" d="M10.86,3.03h1.14V0h-1.14C10.03,0,9.35.68,9.35,1.51s.68,1.51,1.51,1.51Z" />
    <path class="cls-1"
      d="M1.51,13.36c-.84,0-1.51.68-1.51,1.51s.68,1.51,1.51,1.51h10.49v-3.03H1.51Z" />
    <path class="cls-1" d="M6.43,9.42h5.57v-3.03h-5.57c-.84,0-1.51.68-1.51,1.51s.68,1.51,1.51,1.51Z" />
    <path class="cls-1" d="M13.14,3.03h-1.14V0h1.14c.84,0,1.51.68,1.51,1.51s-.68,1.51-1.51,1.51Z" />
    <path class="cls-1"
      d="M22.49,13.36c.84,0,1.51.68,1.51,1.51s-.68,1.51-1.51,1.51h-10.49v-3.03h10.49Z" />
    <path class="cls-1"
      d="M17.57,9.42h-5.57v-3.03h5.57c.84,0,1.51.68,1.51,1.51s-.68,1.51-1.51,1.51Z" />
  </g>
</svg>