<?xml version="1.0" encoding="UTF-8"?>
<svg id="Layer_2" data-name="Layer 2" xmlns="http://www.w3.org/2000/svg" viewBox="0 0 24 16.38">
  <defs>
    <style>
      .cls-1 {
      fill: #231f20;
      stroke-width: 0px;
      }
    </style>
  </defs>
  <g id="Layer_1-2" data-name="Layer 1">
    <path class="to-le">
      <animate
        attributeName="d"
        dur="6.2s"
        repeatCount="infinite"
        values="M1.51,3.03h10.49V0H1.51C.68,0,0,.68,0,1.51s.68,1.51,1.51,1.51Z; M10.86,3.03h1.14V0h-1.14C10.03,0,9.35.68,9.35,1.51s.68,1.51,1.51,1.51Z"
        from="M1.51,3.03h10.49V0H1.51C.68,0,0,.68,0,1.51s.68,1.51,1.51,1.51Z"
        to="M10.86,3.03h1.14V0h-1.14C10.03,0,9.35.68,9.35,1.51s.68,1.51,1.51,1.51Z"
        fill="freeze"
      />
    </path>
    <path class="cls-1" fill="red"
      d="M6.43,9.42h5.57v-3.03h-5.57c-.84,0-1.51.68-1.51,1.51s.68,1.51,1.51,1.51Z">
      <animate
      attributeName="d"
      dur="6.2s"
      repeatCount="infinite"
      values="M1.51,3.03h10.49V0H1.51C.68,0,0,.68,0,1.51s.68,1.51,1.51,1.51Z; M10.86,3.03h1.14V0h-1.14C10.03,0,9.35.68,9.35,1.51s.68,1.51,1.51,1.51Z"
      from="M1.51,3.03h10.49V0H1.51C.68,0,0,.68,0,1.51s.68,1.51,1.51,1.51Z"
      to="M10.86,3.03h1.14V0h-1.14C10.03,0,9.35.68,9.35,1.51s.68,1.51,1.51,1.51Z"
      fill="freeze"
    />
    </path>


    <path class="cls-1" fill="green"
      d="M13.14,3.03h-1.14V0h1.14c.84,0,1.51.68,1.51,1.51s-.68,1.51-1.51,1.51Z" />
    <path class="cls-1" fill="magenta"
      d="M22.49,13.36c.84,0,1.51.68,1.51,1.51s-.68,1.51-1.51,1.51h-10.49v-3.03h10.49Z" />
    <path class="cls-1" fill="brown"
      d="M17.57,9.42h-5.57v-3.03h5.57c.84,0,1.51.68,1.51,1.51s-.68,1.51-1.51,1.51Z" />

    <path class="bo-le"
      d="M1.51,13.36c-.84,0-1.51.68-1.51,1.51s.68,1.51,1.51,1.51h10.49v-3.03H1.51Z">
    </path>

  </g>
  </g>
</svg>