<?xml version="1.0" encoding="UTF-8"?>
<svg id="Layer_2" data-name="Layer 2" xmlns="http://www.w3.org/2000/svg" viewBox="0 0 23.32 20.02">
  <defs>
    <style>
      .cls-1 {
        fill: #231f20;
        stroke-width: 0px;
      }
    </style>
  </defs>
  <g id="Layer_1-2" data-name="Layer 1">
    <path class="path-1" fill="yellow" d="M11.66,12.1L.87,17.13c-.76.35-1.09,1.25-.73,2.01.35.76,1.25,1.09,2.01.73l9.5-4.43v-3.34Z"/>
    <path class="cls-1" d="M11.66,5.79L.87,10.82c-.76.35-1.09,1.25-.73,2.01.35.76,1.25,1.09,2.01.73l9.5-4.43v-3.34Z"/>
    <path class="cls-1" d="M11.66,0L.87,5.03C.12,5.38-.21,6.28.14,7.04c.35.76,1.25,1.09,2.01.73L11.66,3.34V0Z"/>
    <path class="path-1" fill="yellow" d="M11.66,0l10.78,5.03c.76.35,1.09,1.25.73,2.01-.35.76-1.25,1.09-2.01.73L11.66,3.34V0Z"/>
    <path class="cls-1" d="M11.66,5.79l10.78,5.03c.76.35,1.09,1.25.73,2.01-.35.76-1.25,1.09-2.01.73l-9.5-4.43v-3.34Z"/>
    <path class="cls-1" d="M11.66,12.1l10.78,5.03c.76.35,1.09,1.25.73,2.01-.35.76-1.25,1.09-2.01.73l-9.5-4.43v-3.34Z"/>
  </g>
</svg>