<?xml version="1.0" encoding="UTF-8" standalone="no"?>
<!-- Uploaded to: SVG Repo, www.svgrepo.com, Generator: SVG Repo Mixer Tools -->

<svg
   width="800px"
   height="800px"
   viewBox="0 0 32 32"
   id="Camada_1"
   version="1.1"
   xml:space="preserve"
   xmlns="http://www.w3.org/2000/svg"
   xmlns:svg="http://www.w3.org/2000/svg"><defs
   id="defs1" />&#10;	<path
   id="facebook-outer"
   d="M 6 2 C 3.8000022 2 2 3.8000022 2 6 L 2 26 C 2 28.199998 3.8000022 30 6 30 L 26 30 C 28.199998 30 30 28.199998 30 26 L 30 6 C 30 3.8000022 28.199998 2 26 2 L 6 2 z M 17.1 6 L 20.7 6 C 20.9 6 21 6.1000002 21.2 6.3 L 21.2 9.2 C 21.2 9.3999998 21.1 9.5 20.9 9.5 L 18.7 9.5 C 18.100001 9.5 17.7 9.9000005 17.7 10.4 L 17.7 12.5 L 20.8 12.5 C 21 12.5 21.1 12.6 21.1 12.8 L 20.8 15.8 C 20.8 15.9 20.6 16 20.5 16 L 17.7 16 L 17.7 25.8 C 17.7 26 17.6 26.1 17.4 26.1 L 13.5 26.1 C 13.3 26.1 13.2 25.9 13.2 25.8 L 13.2 16.1 L 11.3 16.1 C 11.1 16.1 11 15.9 11 15.8 L 11 12.8 C 11 12.6 11.1 12.5 11.3 12.5 L 13.2 12.5 L 13.2 9.6 C 13.2 7.600002 15.000002 6 17.1 6 z " />&#10;    &#10;</svg>
