<?xml version="1.0" encoding="utf-8"?>
<!-- Generator: Adobe Illustrator 25.4.1, SVG Export Plug-In . SVG Version: 6.00 Build 0)  -->
<svg version="1.1" id="Layer_1" xmlns="http://www.w3.org/2000/svg" xmlns:xlink="http://www.w3.org/1999/xlink" x="0px" y="0px"
	 viewBox="0 0 192 192" style="enable-background:new 0 0 192 192;" xml:space="preserve">
<style type="text/css">
	.st0{fill:#FFFFFF;}
	.st1{display:none;fill:#3778CE;}
	.st2{opacity:0.75;fill:#FF1515;}
</style>
<path class="st0" d="M96,14L96,14c45.6,0,82.5,36.9,82.5,82.5l0,0c0,45.6-36.9,82.5-82.5,82.5l0,0c-45.6,0-82.5-36.9-82.5-82.5l0,0
	C13.5,50.9,50.4,14,96,14z"/>
<path class="st1" d="M86.6,87.1h4.7v4.7h-4.7V87.1z M100.7,115.2h4.7v4.7h-4.7V115.2z M114.8,87.1h4.7v4.7h-4.7V87.1z M100.7,87.1
	h4.7v4.7h-4.7V87.1z M86.6,96.5h4.7v4.7h-4.7V96.5z M72.6,96.5h4.7v4.7h-4.7V96.5z M114.8,96.5h4.7v4.7h-4.7V96.5z M100.7,96.5h4.7
	v4.7h-4.7V96.5z M86.6,105.9h4.7v4.7h-4.7V105.9z M72.6,105.9h4.7v4.7h-4.7V105.9z M114.8,105.9h4.7v4.7h-4.7V105.9z M100.7,105.9
	h4.7v4.7h-4.7V105.9z M86.6,115.2h4.7v4.7h-4.7V115.2z M72.6,115.2h4.7v4.7h-4.7V115.2z M133.5,63.7v65.6h-75V63.7h14.1V59h4.7v4.7
	h37.5V59h4.7v4.7H133.5z M63.2,68.4v9.4h65.6v-9.4h-9.4v4.7h-4.7v-4.7H77.2v4.7h-4.7v-4.7H63.2z M128.8,124.6V82.4H63.2v42.2
	C63.2,124.6,128.8,124.6,128.8,124.6z"/>
<path class="st2" d="M130.1,59v13.6h-6.8V59h-6.8v3.4h-41V59h-6.8v13.6h-6.8V59h-6.8v75h6.8v-13.6h6.8V134h6.8v-3.4h40.9v3.4h6.8
	v-13.6h6.8V134h6.8V59H130.1z M68.7,79.5v13.6h-6.8V79.5H68.7z M61.9,113.5V99.9h6.8v13.6H61.9z M108.1,99.4L87.6,113
	c-2.2,1.4-5.2-0.2-5.3-2.9V82.9c0-2.6,3.1-4.3,5.3-2.9l20.5,13.6C110.1,95,110.1,98,108.1,99.4z M130.1,79.5v13.6h-6.8V79.5H130.1z
	 M123.3,113.5V99.9h6.8v13.6H123.3z"/>
</svg>
