<?xml version="1.0" encoding="UTF-8"?>
<svg id="Layer_2" data-name="Layer 2" xmlns="http://www.w3.org/2000/svg" viewBox="0 0 23.29 20.61">
  <defs>
    <style>
      .cls-1 {
        fill: #231f20;
        stroke-width: 0px;
      }
    </style>
  </defs>
  <g id="Layer_1-2" data-name="Layer 1">

      <path class="cls-1" d="M11.64,0L.87,5.57C.12,5.93-.21,6.83.14,7.58c.35.76,1.25,1.09,2.01.73L11.64,3.41V0Z"/>
      <path class="cls-1" d="M11.64,5.72L.87,11.29c-.76.35-1.09,1.25-.73,2.01.35.76,1.25,1.09,2.01.73l9.48-4.91v-3.41Z"/>
      <path class="cls-1" d="M11.64,12.1L.87,17.68c-.76.35-1.09,1.25-.73,2.01.35.76,1.25,1.09,2.01.73l9.48-4.91v-3.41Z"/>

      <path class="cls-1" d="M11.64,0l10.78,5.62c.76.35,1.09,1.25.73,2.01-.35.76-1.25,1.09-2.01.73L11.64,3.41V0Z"/>
      <path class="cls-1" d="M11.64,5.72l10.78,5.62c.76.35,1.09,1.25.73,2.01-.35.76-1.25,1.09-2.01.73l-9.5-4.95v-3.41Z"/>
      <path class="cls-1" d="M11.64,12.1l10.78,5.62c.76.35,1.09,1.25.73,2.01-.35.76-1.25,1.09-2.01.73l-9.5-4.95v-3.41Z"/>

  </g>
</svg>